<svg width="40" height="43" viewBox="0 0 40 43" fill="none" xmlns="http://www.w3.org/2000/svg">
<path d="M21.5 1.98529C21.5 0.88511 20.8312 0 20 0C19.1688 0 18.5 0.88511 18.5 1.98529V3.97059H16.5C15.6687 3.97059 15 4.8557 15 5.95588C15 7.05607 15.6687 7.94118 16.5 7.94118H18.5V11.7794L11.4563 17.3713C10.55 18.091 10 19.3814 10 20.7794V42.3529H16V34.4118C16 31.4917 17.7938 29.1176 20 29.1176C22.2062 29.1176 24 31.4917 24 34.4118V42.3529H30V20.7794C30 19.3814 29.45 18.091 28.5438 17.3713L21.5 11.7794V7.94118H23.5C24.3312 7.94118 25 7.05607 25 5.95588C25 4.8557 24.3312 3.97059 23.5 3.97059H21.5V1.98529ZM1.55625 27.3226C0.59375 28.0257 0 29.3575 0 30.8051V38.3824C0 40.5745 1.34375 42.3529 3 42.3529H8V22.6324L1.55625 27.3226ZM37 42.3529C38.6562 42.3529 40 40.5745 40 38.3824V30.8051C40 29.3575 39.4062 28.0257 38.4437 27.3226L32 22.6324V42.3529H37Z" fill="#112F5C"/>
</svg>
