<svg width="40" height="32" viewBox="0 0 40 32" fill="none" xmlns="http://www.w3.org/2000/svg">
<path d="M4.5 3.97059C4.5 2.91752 4.86875 1.90759 5.52513 1.16296C6.1815 0.418329 7.07174 0 8 0C8.92826 0 9.8185 0.418329 10.4749 1.16296C11.1313 1.90759 11.5 2.91752 11.5 3.97059C11.5 5.02365 11.1313 6.03359 10.4749 6.77822C9.8185 7.52285 8.92826 7.94118 8 7.94118C7.07174 7.94118 6.1815 7.52285 5.52513 6.77822C4.86875 6.03359 4.5 5.02365 4.5 3.97059ZM4 15.152C3.375 15.9462 3 17.0026 3 18.1513C3 19.2999 3.375 20.3564 4 21.1505V15.152ZM13.025 11.6565C11.1687 13.5213 10 16.2511 10 19.2857C10 21.7177 10.75 23.9512 12 25.7025V27.2269C12 28.4819 11.1062 29.4958 10 29.4958H6C4.89375 29.4958 4 28.4819 4 27.2269V25.3267C1.6375 24.0504 0 21.3206 0 18.1513C0 13.7623 3.13125 10.2101 7 10.2101H9C10.5 10.2101 11.8875 10.7419 13.025 11.6494V11.6565ZM28 27.2269V25.7025C29.25 23.9512 30 21.7177 30 19.2857C30 16.2511 28.8313 13.5213 26.975 11.6494C28.1125 10.7419 29.5 10.2101 31 10.2101H33C36.8688 10.2101 40 13.7623 40 18.1513C40 21.3206 38.3625 24.0504 36 25.3267V27.2269C36 28.4819 35.1063 29.4958 34 29.4958H30C28.8937 29.4958 28 28.4819 28 27.2269ZM28.5 3.97059C28.5 2.91752 28.8687 1.90759 29.5251 1.16296C30.1815 0.418329 31.0717 0 32 0C32.9283 0 33.8185 0.418329 34.4749 1.16296C35.1312 1.90759 35.5 2.91752 35.5 3.97059C35.5 5.02365 35.1312 6.03359 34.4749 6.77822C33.8185 7.52285 32.9283 7.94118 32 7.94118C31.0717 7.94118 30.1815 7.52285 29.5251 6.77822C28.8687 6.03359 28.5 5.02365 28.5 3.97059ZM36 15.152V21.1576C36.625 20.3564 37 19.307 37 18.1584C37 17.0097 36.625 15.9533 36 15.1591V15.152ZM20 0C21.0609 0 22.0783 0.47809 22.8284 1.3291C23.5786 2.1801 24 3.33431 24 4.53782C24 5.74132 23.5786 6.89553 22.8284 7.74654C22.0783 8.59754 21.0609 9.07563 20 9.07563C18.9391 9.07563 17.9217 8.59754 17.1716 7.74654C16.4214 6.89553 16 5.74132 16 4.53782C16 3.33431 16.4214 2.1801 17.1716 1.3291C17.9217 0.47809 18.9391 0 20 0ZM15 19.2857C15 20.4343 15.375 21.4837 16 22.2849V16.2865C15.375 17.0877 15 18.1371 15 19.2857ZM24 16.2865V22.292C24.625 21.4908 25 20.4414 25 19.2928C25 18.1442 24.625 17.0877 24 16.2936V16.2865ZM28 19.2857C28 22.4551 26.3625 25.1849 24 26.4611V29.4958C24 30.7508 23.1063 31.7647 22 31.7647H18C16.8937 31.7647 16 30.7508 16 29.4958V26.4611C13.6375 25.1849 12 22.4551 12 19.2857C12 14.8968 15.1313 11.3445 19 11.3445H21C24.8687 11.3445 28 14.8968 28 19.2857Z" fill="#112F5C"/>
</svg>
