<svg width="40" height="40" viewBox="0 0 40 40" fill="none" xmlns="http://www.w3.org/2000/svg">
<path d="M20 20C23.031 20 25.9379 18.9464 28.0812 17.0711C30.2245 15.1957 31.4286 12.6522 31.4286 10C31.4286 7.34784 30.2245 4.8043 28.0812 2.92893C25.9379 1.05357 23.031 0 20 0C16.969 0 14.0621 1.05357 11.9188 2.92893C9.77551 4.8043 8.57143 7.34784 8.57143 10C8.57143 12.6522 9.77551 15.1957 11.9188 17.0711C14.0621 18.9464 16.969 20 20 20ZM15.9196 23.75C7.125 23.75 0 29.9844 0 37.6797C0 38.9609 1.1875 40 2.65179 40H37.3482C38.8125 40 40 38.9609 40 37.6797C40 29.9844 32.875 23.75 24.0804 23.75H15.9196Z" fill="#112F5C"/>
</svg>
