<svg width="40" height="40" viewBox="0 0 40 40" fill="none" xmlns="http://www.w3.org/2000/svg">
<path d="M12.8824 1.92363C12.2809 0.470569 10.695 -0.302834 9.17945 0.11121L2.30475 1.98613C0.945437 2.36111 0.000165939 3.59543 0.000165939 5.00162C0.000165939 24.3289 15.6714 40.0001 34.9986 40.0001C36.4048 40.0001 37.6391 39.0548 38.0141 37.6955L39.889 30.8208C40.3031 29.3052 39.5297 27.7194 38.0766 27.1178L30.5769 23.993C29.3036 23.4617 27.8271 23.8289 26.9599 24.8992L23.8038 28.7506C18.304 26.1491 13.8511 21.6962 11.2497 16.1964L15.1011 13.0481C16.1713 12.1732 16.5385 10.7045 16.0073 9.43111L12.8824 1.93144V1.92363Z" fill="#112F5C"/>
</svg>
